<svg width="200" height="200" viewBox="0 0 200 200" xmlns="http://www.w3.org/2000/svg">
  <!-- 计算器外框 -->
  <rect x="40" y="30" width="120" height="150" rx="10" fill="#4A90E2" stroke="#fff" stroke-width="3"/>
  
  <!-- 显示屏 -->
  <rect x="50" y="40" width="100" height="30" rx="5" fill="#000"/>
  <text x="140" y="60" font-family="Arial, sans-serif" font-size="18" fill="#00FF00" text-anchor="end">123.45</text>
  
  <!-- 按钮网格 -->
  <!-- 第一行 -->
  <rect x="55" y="80" width="20" height="15" rx="3" fill="#FF6B6B"/>
  <text x="65" y="92" font-family="Arial, sans-serif" font-size="10" fill="#fff" text-anchor="middle">C</text>
  
  <rect x="85" y="80" width="20" height="15" rx="3" fill="#FFB74D"/>
  <text x="95" y="92" font-family="Arial, sans-serif" font-size="10" fill="#fff" text-anchor="middle">±</text>
  
  <rect x="115" y="80" width="20" height="15" rx="3" fill="#FFB74D"/>
  <text x="125" y="92" font-family="Arial, sans-serif" font-size="10" fill="#fff" text-anchor="middle">%</text>
  
  <rect x="145" y="80" width="20" height="15" rx="3" fill="#FFB74D"/>
  <text x="155" y="92" font-family="Arial, sans-serif" font-size="10" fill="#fff" text-anchor="middle">÷</text>
  
  <!-- 第二行 -->
  <rect x="55" y="105" width="20" height="15" rx="3" fill="#E0E0E0"/>
  <text x="65" y="117" font-family="Arial, sans-serif" font-size="10" fill="#333" text-anchor="middle">7</text>
  
  <rect x="85" y="105" width="20" height="15" rx="3" fill="#E0E0E0"/>
  <text x="95" y="117" font-family="Arial, sans-serif" font-size="10" fill="#333" text-anchor="middle">8</text>
  
  <rect x="115" y="105" width="20" height="15" rx="3" fill="#E0E0E0"/>
  <text x="125" y="117" font-family="Arial, sans-serif" font-size="10" fill="#333" text-anchor="middle">9</text>
  
  <rect x="145" y="105" width="20" height="15" rx="3" fill="#FFB74D"/>
  <text x="155" y="117" font-family="Arial, sans-serif" font-size="10" fill="#fff" text-anchor="middle">×</text>
  
  <!-- 第三行 -->
  <rect x="55" y="130" width="20" height="15" rx="3" fill="#E0E0E0"/>
  <text x="65" y="142" font-family="Arial, sans-serif" font-size="10" fill="#333" text-anchor="middle">4</text>
  
  <rect x="85" y="130" width="20" height="15" rx="3" fill="#E0E0E0"/>
  <text x="95" y="142" font-family="Arial, sans-serif" font-size="10" fill="#333" text-anchor="middle">5</text>
  
  <rect x="115" y="130" width="20" height="15" rx="3" fill="#E0E0E0"/>
  <text x="125" y="142" font-family="Arial, sans-serif" font-size="10" fill="#333" text-anchor="middle">6</text>
  
  <rect x="145" y="130" width="20" height="15" rx="3" fill="#FFB74D"/>
  <text x="155" y="142" font-family="Arial, sans-serif" font-size="10" fill="#fff" text-anchor="middle">-</text>
  
  <!-- 第四行 -->
  <rect x="55" y="155" width="20" height="15" rx="3" fill="#E0E0E0"/>
  <text x="65" y="167" font-family="Arial, sans-serif" font-size="10" fill="#333" text-anchor="middle">1</text>
  
  <rect x="85" y="155" width="20" height="15" rx="3" fill="#E0E0E0"/>
  <text x="95" y="167" font-family="Arial, sans-serif" font-size="10" fill="#333" text-anchor="middle">2</text>
  
  <rect x="115" y="155" width="20" height="15" rx="3" fill="#E0E0E0"/>
  <text x="125" y="167" font-family="Arial, sans-serif" font-size="10" fill="#333" text-anchor="middle">3</text>
  
  <rect x="145" y="155" width="20" height="15" rx="3" fill="#FFB74D"/>
  <text x="155" y="167" font-family="Arial, sans-serif" font-size="10" fill="#fff" text-anchor="middle">+</text>
</svg> 