<svg width="200" height="200" viewBox="0 0 200 200" xmlns="http://www.w3.org/2000/svg">
  <!-- 背景圆形 -->
  <circle cx="100" cy="100" r="90" fill="#FF6B6B" stroke="#fff" stroke-width="4"/>
  
  <!-- 转盘分割线 -->
  <line x1="100" y1="10" x2="100" y2="190" stroke="#fff" stroke-width="2"/>
  <line x1="10" y1="100" x2="190" y2="100" stroke="#fff" stroke-width="2"/>
  <line x1="35" y1="35" x2="165" y2="165" stroke="#fff" stroke-width="2"/>
  <line x1="165" y1="35" x2="35" y2="165" stroke="#fff" stroke-width="2"/>
  
  <!-- 中心圆 -->
  <circle cx="100" cy="100" r="20" fill="#fff"/>
  
  <!-- 餐具图标 -->
  <!-- 叉子 -->
  <g transform="translate(100, 50)">
    <rect x="-2" y="-15" width="4" height="30" fill="#fff"/>
    <rect x="-8" y="-15" width="2" height="10" fill="#fff"/>
    <rect x="-4" y="-15" width="2" height="10" fill="#fff"/>
    <rect x="2" y="-15" width="2" height="10" fill="#fff"/>
    <rect x="6" y="-15" width="2" height="10" fill="#fff"/>
  </g>
  
  <!-- 勺子 -->
  <g transform="translate(150, 100)">
    <rect x="-2" y="-15" width="4" height="20" fill="#fff"/>
    <ellipse cx="0" cy="-20" rx="6" ry="8" fill="#fff"/>
  </g>
  
  <!-- 刀子 -->
  <g transform="translate(100, 150)">
    <rect x="-2" y="-15" width="4" height="30" fill="#fff"/>
    <polygon points="-6,-15 6,-15 4,-10 -4,-10" fill="#fff"/>
  </g>
  
  <!-- 筷子 -->
  <g transform="translate(50, 100)">
    <rect x="-1" y="-15" width="2" height="25" fill="#fff"/>
    <rect x="2" y="-15" width="2" height="25" fill="#fff"/>
  </g>
  
  <!-- 指针 -->
  <polygon points="100,15 105,25 95,25" fill="#333"/>
</svg> 